<?xml version="1.0" encoding="UTF-8"?>
<svg version="1.1" xmlns="http://www.w3.org/2000/svg" width="1000" height="1000">
<path d="M0 0 C1.31592636 -0.00705963 2.63185272 -0.01411926 3.98765564 -0.02139282 C8.21443229 -0.04093212 12.44115117 -0.04608491 16.66796875 -0.046875 C17.74794884 -0.04731686 17.74794884 -0.04731686 18.8497467 -0.04776764 C39.99099425 -0.04916596 60.89566788 0.08500029 81.85546875 3.203125 C83.28351437 3.40927858 84.71157498 3.61532838 86.13964844 3.82128906 C141.95106917 11.98133286 195.51553321 28.26132075 245.71826172 54.10791016 C248.02955162 55.29233402 250.35070841 56.45615511 252.671875 57.62109375 C287.06803154 75.06537471 319.80032639 97.83747822 348.2734375 123.8671875 C350.37532229 125.76874137 352.49766947 127.63690538 354.63671875 129.49609375 C366.03186428 139.44869777 376.80262971 149.90139032 386.85546875 161.203125 C387.78515702 162.2120406 388.7175053 163.21851082 389.65234375 164.22265625 C395.65625067 170.6727925 401.38701465 177.29047976 406.85546875 184.203125 C407.36980469 184.85023438 407.88414062 185.49734375 408.4140625 186.1640625 C427.43406075 210.14770925 444.00243911 235.43714011 458.85546875 262.203125 C459.22333496 262.85764648 459.59120117 263.51216797 459.97021484 264.18652344 C496.25541327 328.85149723 517.79271383 407.95999265 518.05859375 482.34765625 C518.06565338 483.66358261 518.07271301 484.97950897 518.07998657 486.33531189 C518.09952587 490.56208854 518.10467866 494.78880742 518.10546875 499.015625 C518.10591061 500.09560509 518.10591061 500.09560509 518.10636139 501.19740295 C518.10775971 522.3386505 517.97359346 543.24332413 514.85546875 564.203125 C514.64931517 565.63117062 514.44326537 567.05923123 514.23730469 568.48730469 C506.07726089 624.29872542 489.797273 677.86318946 463.95068359 728.06591797 C462.76625973 730.37720787 461.60243864 732.69836466 460.4375 735.01953125 C442.99321904 769.41568779 420.22111553 802.14798264 394.19140625 830.62109375 C392.28985238 832.72297854 390.42168837 834.84532572 388.5625 836.984375 C378.60989598 848.37952053 368.15720343 859.15028596 356.85546875 869.203125 C355.84655315 870.13281327 354.84008293 871.06516155 353.8359375 872 C347.38580125 878.00390692 340.76811399 883.7346709 333.85546875 889.203125 C333.20835937 889.71746094 332.56125 890.23179687 331.89453125 890.76171875 C307.9108845 909.781717 282.62145364 926.35009536 255.85546875 941.203125 C255.20094727 941.57099121 254.54642578 941.93885742 253.87207031 942.31787109 C189.20709652 978.60306952 110.0986011 1000.14037008 35.7109375 1000.40625 C34.39501114 1000.41330963 33.07908478 1000.42036926 31.72328186 1000.42764282 C27.49650521 1000.44718212 23.26978633 1000.45233491 19.04296875 1000.453125 C17.96298866 1000.45356686 17.96298866 1000.45356686 16.8611908 1000.45401764 C-4.28005675 1000.45541596 -25.18473038 1000.32124971 -46.14453125 997.203125 C-47.57257687 996.99697142 -49.00063748 996.79092162 -50.42871094 996.58496094 C-106.24013167 988.42491714 -159.80459571 972.14492925 -210.00732422 946.29833984 C-212.31861412 945.11391598 -214.63977091 943.95009489 -216.9609375 942.78515625 C-251.35709404 925.34087529 -284.08938889 902.56877178 -312.5625 876.5390625 C-314.66438479 874.63750863 -316.78673197 872.76934462 -318.92578125 870.91015625 C-330.32092678 860.95755223 -341.09169221 850.50485968 -351.14453125 839.203125 C-352.07421952 838.1942094 -353.0065678 837.18773918 -353.94140625 836.18359375 C-359.94531317 829.7334575 -365.67607715 823.11577024 -371.14453125 816.203125 C-371.65886719 815.55601562 -372.17320312 814.90890625 -372.703125 814.2421875 C-391.72312325 790.25854075 -408.29150161 764.96910989 -423.14453125 738.203125 C-423.51239746 737.54860352 -423.88026367 736.89408203 -424.25927734 736.21972656 C-460.54447577 671.55475277 -482.08177633 592.44625735 -482.34765625 518.05859375 C-482.35471588 516.74266739 -482.36177551 515.42674103 -482.36904907 514.07093811 C-482.38858837 509.84416146 -482.39374116 505.61744258 -482.39453125 501.390625 C-482.39482582 500.67063828 -482.39512039 499.95065155 -482.39542389 499.20884705 C-482.39682221 478.0675995 -482.26265596 457.16292587 -479.14453125 436.203125 C-478.93837767 434.77507938 -478.73232787 433.34701877 -478.52636719 431.91894531 C-470.36632339 376.10752458 -454.0863355 322.54306054 -428.23974609 272.34033203 C-427.05532223 270.02904213 -425.89150114 267.70788534 -424.7265625 265.38671875 C-407.28228154 230.99056221 -384.51017803 198.25826736 -358.48046875 169.78515625 C-356.57891488 167.68327146 -354.71075087 165.56092428 -352.8515625 163.421875 C-342.89895848 152.02672947 -332.44626593 141.25596404 -321.14453125 131.203125 C-320.13561565 130.27343673 -319.12914543 129.34108845 -318.125 128.40625 C-311.67486375 122.40234308 -305.05717649 116.6715791 -298.14453125 111.203125 C-297.49742187 110.68878906 -296.8503125 110.17445312 -296.18359375 109.64453125 C-272.199947 90.624533 -246.91051614 74.05615464 -220.14453125 59.203125 C-219.49000977 58.83525879 -218.83548828 58.46739258 -218.16113281 58.08837891 C-153.49615902 21.80318048 -74.3876636 0.26587992 0 0 Z " fill="#F0E9DC" transform="translate(482.14453125,-0.203125)"/>
<path d="M0 0 C10.3968222 7.1778061 17.37415771 17.24340271 19.84375 29.71484375 C21.04739772 42.10649574 18.63750216 55.67643482 10.82421875 65.60546875 C5.19363522 71.60253996 -1.68092248 76.28535946 -9.15625 79.71484375 C-9.81625 79.71484375 -10.47625 79.71484375 -11.15625 79.71484375 C-11.15625 96.21484375 -11.15625 112.71484375 -11.15625 129.71484375 C-6.77649902 129.6991333 -2.39674805 129.68342285 2.11572266 129.66723633 C16.61633938 129.61743838 31.11695955 129.58420083 45.61763954 129.55940723 C54.40594486 129.54397939 63.19416881 129.52296854 71.98242188 129.48852539 C79.6478374 129.45849738 87.31319395 129.43923913 94.97866666 129.43257827 C99.03242829 129.42868856 103.0860213 129.41963379 107.13972855 129.39765358 C110.96629103 129.3770759 114.79261771 129.37105221 118.61923027 129.37552071 C120.01306254 129.3747049 121.40690388 129.36886722 122.80068779 129.35722733 C142.732784 129.19913353 163.78877432 134.44606213 178.71875 148.40234375 C179.42 149.16546875 180.12125 149.92859375 180.84375 150.71484375 C182.01164063 151.5965625 182.01164063 151.5965625 183.203125 152.49609375 C195.83439591 163.10935096 202.98227018 181.78884975 204.84375 197.71484375 C205.26162926 204.02185764 205.13234618 210.33669378 205.03125 216.65234375 C205.01615321 218.31834707 205.00247377 219.98436386 204.99023438 221.65039062 C204.95767611 225.67221704 204.90618026 229.69337472 204.84375 233.71484375 C205.66053223 233.69389648 206.47731445 233.67294922 207.31884766 233.65136719 C211.03535555 233.56799245 214.75166633 233.51611387 218.46875 233.46484375 C219.75394531 233.43132812 221.03914062 233.3978125 222.36328125 233.36328125 C234.07155691 233.24195197 234.07155691 233.24195197 238.84375 237.71484375 C239.58625 238.33359375 240.32875 238.95234375 241.09375 239.58984375 C245.11836507 244.47687633 245.13787397 250.12033136 245.1184082 256.1953125 C245.12351913 257.02535797 245.12863007 257.85540344 245.13389587 258.71060181 C245.1477417 261.44125676 245.14683915 264.17165797 245.14453125 266.90234375 C245.1484204 268.80753675 245.15275552 270.7127289 245.15751648 272.61791992 C245.16496751 276.60566015 245.16469511 280.59331181 245.15942383 284.58105469 C245.15362496 289.68547909 245.17057571 294.78954114 245.1937685 299.89390564 C245.20851393 303.82647818 245.20937653 307.75896355 245.20625877 311.69155884 C245.20677139 313.57338174 245.21199789 315.4552096 245.22207069 317.33700562 C245.23443606 319.96970062 245.2276434 322.6016909 245.21606445 325.234375 C245.22370819 326.00754059 245.23135193 326.78070618 245.23922729 327.57730103 C245.18461562 333.20791016 243.97979903 337.29433299 240.23046875 341.54296875 C239.66972656 342.0121875 239.10898437 342.48140625 238.53125 342.96484375 C237.97824219 343.444375 237.42523437 343.92390625 236.85546875 344.41796875 C230.48248971 348.52637466 223.77468571 347.9517132 216.46875 347.83984375 C215.35113281 347.83082031 214.23351562 347.82179688 213.08203125 347.8125 C210.33571538 347.78902721 207.58984528 347.75619103 204.84375 347.71484375 C204.85946045 348.72160156 204.8751709 349.72835938 204.89135742 350.765625 C204.94659552 354.58259743 204.98043273 358.39953649 205.00854492 362.21679688 C205.02342183 363.85357649 205.0437298 365.49031782 205.07006836 367.12695312 C205.28909317 381.11018401 204.73601302 395.23288268 198.59375 408.08984375 C198.29001465 408.75064941 197.9862793 409.41145508 197.67333984 410.09228516 C194.98798019 415.75799241 191.8026414 420.84300046 187.84375 425.71484375 C187.17730469 426.54371094 186.51085937 427.37257813 185.82421875 428.2265625 C172.36177311 444.0661607 153.63144342 454.01489085 132.84375 455.71484375 C127.55315951 455.91084904 122.26219348 455.97132113 116.96875 456.03125 C115.4331816 456.05185328 113.89761844 456.07285056 112.36206055 456.09422302 C108.34430213 456.1490956 104.32649553 456.19865657 100.30865479 456.24707031 C96.19921645 456.29754156 92.08984703 456.3530931 87.98046875 456.40820312 C79.93495284 456.51535808 71.88937753 456.61642532 63.84375 456.71484375 C63.51375 464.63484375 63.18375 472.55484375 62.84375 480.71484375 C67.17113281 480.68342285 67.17113281 480.68342285 71.5859375 480.65136719 C81.17309612 480.58475633 90.76026561 480.54077307 100.34759521 480.50759506 C106.15405634 480.48681941 111.96027813 480.45868695 117.76660156 480.41308594 C123.38171708 480.36926819 128.996604 480.34563151 134.61187744 480.33533478 C136.74224439 480.32800738 138.87260041 480.31370096 141.00286865 480.29192352 C161.99109587 480.08611488 181.79520214 482.68811355 197.84375 497.71484375 C210.22778395 510.42355275 216.18739598 527.69376817 216.18363953 545.26838684 C216.16815567 546.36060043 216.15267181 547.45281403 216.13671875 548.578125 C216.13247391 549.73612106 216.12822906 550.89411713 216.12385559 552.08720398 C216.10725389 555.73416828 216.0696373 559.38055051 216.03125 563.02734375 C216.01617922 565.52147631 216.00249505 568.01561766 215.99023438 570.50976562 C215.95741135 576.57831882 215.90740102 582.64653968 215.84375 588.71484375 C219.0282427 588.4284948 222.21141782 588.12939016 225.39453125 587.828125 C226.28821411 587.74792114 227.18189697 587.66771729 228.10266113 587.58508301 C246.46208406 585.82274665 261.92049823 577.59005039 273.90234375 563.4296875 C281.83820468 552.33225622 285.68393945 539.84021063 288.84375 526.71484375 C288.28042969 526.46734375 287.71710937 526.21984375 287.13671875 525.96484375 C271.6366015 517.51503537 261.42690435 500.81431328 256.46875 484.46484375 C255.00804623 478.87172163 254.07501567 473.48684939 253.84375 467.71484375 C253.7921875 466.95300781 253.740625 466.19117188 253.6875 465.40625 C253.02470881 448.58792368 259.10956095 432.39453032 270.34375 419.96484375 C275.72319935 414.34890475 280.54128439 410.75299431 288.40625 410.08984375 C292.81125921 410.31047461 295.30930606 411.87445536 298.3984375 414.94921875 C301.63902224 418.90798714 303.14202773 422.68454485 302.90625 427.77734375 C302.2817336 432.05455489 300.60714709 435.56642366 298.78125 439.46484375 C294.59868043 448.79519126 294.44794103 457.70868335 297.8046875 467.37109375 C302.18926627 477.26112106 308.79580066 483.91947687 318.79296875 487.96875 C327.68908045 491.20524016 337.20478298 490.37986006 345.84375 486.71484375 C355.35597932 481.64370372 362.02805648 474.25704908 365.421875 463.9609375 C367.38775248 453.49446019 366.30432431 443.81732082 361.97827148 434.15722656 C359.55595378 428.68668786 358.92299392 424.27249952 360.96875 418.58984375 C363.26558609 415.06802841 365.29359491 412.99230173 368.84375 410.71484375 C375.01182021 409.83369086 378.76346313 411.06714962 383.84375 414.71484375 C384.83375 415.41609375 385.82375 416.11734375 386.84375 416.83984375 C397.03552855 425.75425272 403.45590422 440.42197492 404.84375 453.71484375 C406.32302895 475.99012359 403.8010751 495.80377912 388.90234375 513.40625 C387.88333984 514.54900391 387.88333984 514.54900391 386.84375 515.71484375 C385.90208984 516.78025391 385.90208984 516.78025391 384.94140625 517.8671875 C379.95025813 523.18495472 374.26461722 527.2557907 367.84375 530.71484375 C367.18375 530.71484375 366.52375 530.71484375 365.84375 530.71484375 C365.905625 532.63296875 365.905625 532.63296875 365.96875 534.58984375 C365.83326129 566.65550616 354.13699071 598.49796595 331.84375 621.71484375 C330.71344025 623.06458158 329.588198 624.41858382 328.46875 625.77734375 C305.1116769 652.31224993 269.21517518 666.17760776 234.84375 668.71484375 C231.73071014 668.90252565 228.61679193 669.07275491 225.50268555 669.24169922 C224.25184299 669.31033424 224.25184299 669.31033424 222.9757309 669.38035583 C220.93176876 669.4924277 218.88776361 669.60371469 216.84375 669.71484375 C216.84161247 671.69442833 216.84161247 671.69442833 216.83943176 673.71400452 C216.82269997 686.20350636 216.77973797 698.69268495 216.71165943 711.18201542 C216.67749432 717.60161494 216.65229573 724.02097912 216.64819336 730.44067383 C216.64388799 736.64602395 216.61523975 742.85084409 216.57031822 749.05602837 C216.55741461 751.41323182 216.55300995 753.77049892 216.55759621 756.12773323 C216.58977084 777.70307724 213.21918845 794.86850803 197.96875 811.15234375 C181.20950621 826.6529882 161.13029151 829.86225146 139.2088623 829.8687439 C137.7282813 829.8727652 136.24770137 829.87720452 134.76712275 829.88202345 C130.71571151 829.89391978 126.66431214 829.89962113 122.61288691 829.90420461 C118.2363931 829.91018698 113.85991328 829.9217899 109.48342896 829.93249512 C98.92416544 829.95695548 88.36489732 829.97163508 77.80561423 829.98455518 C74.82058479 829.98827119 71.8355558 829.99224406 68.85052681 829.99630785 C50.29064269 830.02154387 31.73075777 830.04358407 13.17086029 830.056036 C8.87725319 830.05896539 4.58364611 830.0619271 0.29003906 830.06494141 C-0.77703346 830.06568746 -1.84410599 830.06643351 -2.94351405 830.06720217 C-20.22299938 830.07985143 -37.50238172 830.11307318 -54.78181893 830.15474324 C-72.54485153 830.19722658 -90.30783148 830.22073822 -108.07091475 830.22595656 C-118.03514498 830.22936294 -127.99921411 830.24102717 -137.96339417 830.2740593 C-146.45013662 830.30214874 -154.93668488 830.31302013 -163.4234702 830.30186383 C-167.74771307 830.29670031 -172.07154982 830.29941265 -176.39573288 830.32432938 C-201.48283568 830.46096953 -223.41233044 829.6501935 -242.7734375 811.28515625 C-260.59912142 792.05679557 -262.64297238 768.93582216 -262.44921875 743.93359375 C-262.44360965 741.78170063 -262.43934578 739.62980363 -262.43635559 737.47790527 C-262.42501019 731.86872406 -262.39563406 726.25978331 -262.36224365 720.6506958 C-262.33131814 714.90518444 -262.31780264 709.15963346 -262.30273438 703.4140625 C-262.27075258 692.18088509 -262.21968398 680.94788457 -262.15625 669.71484375 C-263.2191626 669.72427002 -264.2820752 669.73369629 -265.37719727 669.7434082 C-266.80484909 669.75103643 -268.23250218 669.7584294 -269.66015625 669.765625 C-270.35677368 669.77243286 -271.05339111 669.77924072 -271.77111816 669.78625488 C-277.94564577 669.80947411 -283.98339004 669.27911421 -290.08984375 668.3359375 C-292.14366242 668.02153189 -294.19652245 667.70922979 -296.25439453 667.42236328 C-324.60661315 663.45396495 -350.11159088 648.73009717 -371.15625 629.71484375 C-371.95675781 628.998125 -372.75726563 628.28140625 -373.58203125 627.54296875 C-394.40698268 607.86468427 -408.71858339 578.15428748 -411.15625 549.71484375 C-411.15491296 548.16789042 -411.13855762 546.62089738 -411.109375 545.07421875 C-410.67729195 536.61214847 -410.67729195 536.61214847 -414.2421875 529.40234375 C-416.9693004 527.72226899 -416.9693004 527.72226899 -419.97265625 526.33203125 C-433.13456779 519.64610318 -441.98543993 506.1054588 -447.15625 492.71484375 C-447.74792969 491.24724609 -447.74792969 491.24724609 -448.3515625 489.75 C-454.07200498 473.24872361 -453.27863506 451.67442592 -446.09375 435.71484375 C-445.78993408 435.03695801 -445.48611816 434.35907227 -445.1730957 433.66064453 C-440.5459262 423.81932002 -433.70152815 414.56760679 -423.15625 410.71484375 C-418.92139479 410.1049137 -415.78406893 410.74871458 -412.109375 412.9296875 C-408.2094384 415.96744804 -405.94119477 418.71082086 -405.15625 423.71484375 C-404.87197423 429.542497 -406.55598893 433.70946485 -409.21875 438.83984375 C-413.58334182 447.8424717 -413.63462139 457.01533782 -410.65625 466.52734375 C-406.47635137 476.40309016 -399.69480458 483.61887643 -389.81640625 487.67578125 C-378.68717761 491.50859617 -369.48851061 489.8777797 -358.96875 485.33984375 C-350.76797066 480.60161569 -345.39153358 473.94524 -342.28125 464.96484375 C-339.27423119 453.22660164 -341.58281618 443.69108492 -346.15625 432.71484375 C-347.81918503 428.72037095 -348.75680184 426.09029284 -348.15625 421.71484375 C-346.12808886 417.46459372 -343.55567818 412.72601092 -339.15625 410.71484375 C-332.07002937 409.73743401 -327.09345107 411.87999584 -321.15625 415.71484375 C-309.839633 424.66815117 -302.78785373 438.73772137 -300.44140625 452.81640625 C-298.45838379 472.97260712 -301.62729665 493.97947672 -314.8046875 510.1015625 C-327.05877024 524.16610387 -327.05877024 524.16610387 -334.15625 527.71484375 C-331.94112233 546.36159008 -323.14025326 563.15225071 -308.34375 574.96484375 C-296.60643493 583.20196546 -283.55390098 587.44785168 -269.34375 588.27734375 C-268.65087891 588.32052734 -267.95800781 588.36371094 -267.24414062 588.40820312 C-265.54836314 588.51345828 -263.85232948 588.61457238 -262.15625 588.71484375 C-262.16513245 588.16599518 -262.17401489 587.61714661 -262.1831665 587.05166626 C-262.27294938 581.24223452 -262.33251487 575.43300539 -262.37597656 569.62304688 C-262.39586246 567.46638969 -262.42298096 565.30978473 -262.45800781 563.15332031 C-262.8291136 539.68633675 -260.29657079 517.34701146 -243.36499023 499.67407227 C-228.24849662 484.71875192 -210.64776985 480.31731438 -190.00750732 480.37495422 C-187.92687746 480.3902683 -185.84625002 480.40591619 -183.765625 480.421875 C-181.6080149 480.42747953 -179.45040095 480.43174557 -177.29278564 480.43473816 C-171.65066744 480.44611949 -166.00878584 480.47552809 -160.36676025 480.5088501 C-154.5947998 480.5396966 -148.82280061 480.55327449 -143.05078125 480.56835938 C-131.7524842 480.60040492 -120.45442391 480.6531172 -109.15625 480.71484375 C-109.15625 472.46484375 -109.15625 464.21484375 -109.15625 455.71484375 C-111.27861084 455.74102783 -113.40097168 455.76721191 -115.58764648 455.79418945 C-122.6681336 455.87773213 -129.74864483 455.93254064 -136.82949734 455.97390461 C-141.11487231 455.99979291 -145.39973449 456.03480073 -149.68481445 456.09204102 C-153.83460958 456.14711544 -157.98391745 456.17641952 -162.13405037 456.18922997 C-163.70262366 456.19833682 -165.27117596 456.21611171 -166.83953667 456.24349403 C-181.39014735 456.4869984 -195.09986957 453.73198893 -207.96875 446.58984375 C-208.66468262 446.212229 -209.36061523 445.83461426 -210.07763672 445.44555664 C-217.05280004 441.48921832 -222.62589163 436.46917302 -228.15625 430.71484375 C-228.81882812 430.06 -229.48140625 429.40515625 -230.1640625 428.73046875 C-246.52846205 411.55885667 -250.35381286 388.79298954 -250.78125 366.08984375 C-250.81950702 364.40102323 -250.858563 362.71222061 -250.8984375 361.0234375 C-250.99358889 356.92072129 -251.07792039 352.81791418 -251.15625 348.71484375 C-251.71497803 348.69502441 -252.27370605 348.67520508 -252.84936523 348.65478516 C-255.43122418 348.55832185 -258.01240392 348.44914563 -260.59375 348.33984375 C-261.47224609 348.30890625 -262.35074219 348.27796875 -263.25585938 348.24609375 C-279.12906772 347.54322106 -279.12906772 347.54322106 -284.59375 342.33984375 C-285.23183594 341.75460937 -285.86992187 341.169375 -286.52734375 340.56640625 C-290.41779328 336.14416865 -290.45328807 332.02686023 -290.44677734 326.30957031 C-290.45349457 325.46352234 -290.46021179 324.61747437 -290.46713257 323.74578857 C-290.48612849 320.94895551 -290.4900379 318.15236232 -290.4921875 315.35546875 C-290.49861553 313.40736798 -290.5053439 311.45926818 -290.51235962 309.51116943 C-290.52433723 305.42571781 -290.52804006 301.34035076 -290.52685547 297.25488281 C-290.52665253 292.03168756 -290.55392648 286.80903794 -290.58839989 281.58597183 C-290.61069254 277.5606642 -290.61469224 273.53548724 -290.61363602 269.51012421 C-290.61598949 267.58528518 -290.62479869 265.66044241 -290.64030075 263.73566437 C-290.6600037 261.03595896 -290.65410548 258.33742148 -290.64208984 255.63769531 C-290.65332886 254.84987671 -290.66456787 254.06205811 -290.67614746 253.25036621 C-290.61322293 247.65725916 -289.25620502 243.39861718 -286.15625 238.71484375 C-281.48464577 234.27112265 -278.05599372 233.58860057 -271.73828125 233.6171875 C-269.85786133 233.62202148 -269.85786133 233.62202148 -267.93945312 233.62695312 C-265.97395508 233.63952148 -265.97395508 233.63952148 -263.96875 233.65234375 C-262.63346519 233.65736058 -261.29817859 233.66192316 -259.96289062 233.66601562 C-256.69396527 233.6778168 -253.42513009 233.69428078 -250.15625 233.71484375 C-250.17981567 232.09026245 -250.17981567 232.09026245 -250.20385742 230.43286133 C-250.25881322 226.35318661 -250.29283477 222.27354346 -250.32104492 218.19360352 C-250.33598392 216.43931548 -250.35634262 214.68506381 -250.38256836 212.9309082 C-250.58003588 199.3675997 -249.99087843 186.83194821 -243.46875 174.58984375 C-243.12062256 173.91880615 -242.77249512 173.24776855 -242.41381836 172.55639648 C-231.72654782 152.4675963 -215.53711875 139.0240834 -193.984375 132.0078125 C-184.21298757 129.29136679 -173.94092091 129.57355843 -163.89404297 129.60131836 C-162.48371889 129.601601 -161.07339467 129.60144099 -159.66307068 129.60087585 C-155.8641841 129.60059089 -152.06532959 129.60643874 -148.26645041 129.61344981 C-144.28531148 129.61973367 -140.30417168 129.62029111 -136.32302856 129.62147522 C-128.79746151 129.62457377 -121.27190912 129.63276713 -113.7463485 129.64282471 C-105.17312576 129.65403186 -96.59990229 129.65950786 -88.02667403 129.66452014 C-70.40319107 129.67495108 -52.77972172 129.69252174 -35.15625 129.71484375 C-34.94355511 122.74011313 -34.84140227 115.76989461 -34.81445312 108.79199219 C-34.79244724 106.42118172 -34.74553672 104.05046224 -34.67285156 101.68066406 C-33.67835784 89.236927 -33.67835784 89.236927 -37.51547241 77.90713501 C-40.38622186 75.50104338 -43.12276117 74.34865196 -46.64770508 73.03833008 C-54.20521312 70.18750195 -58.68737756 63.20136879 -62.09375 56.15234375 C-67.0614546 43.84481263 -67.49846149 31.73830621 -62.37890625 19.2421875 C-56.60756502 7.31229046 -48.5264201 0.36326171 -36.15625 -4.28515625 C-24.41106163 -7.65409524 -10.40645912 -6.20240045 0 0 Z " fill="#061A20" transform="translate(523.15625,107.28515625)"/>
<path d="M0 0 C1.51785841 -0.00417725 3.0357137 -0.00965691 4.55356324 -0.01631981 C8.70783419 -0.03074194 12.86190621 -0.02653985 17.01618791 -0.019153 C21.50300842 -0.0144156 25.98978626 -0.02693625 30.47659302 -0.03717041 C39.26023089 -0.05435265 48.04379721 -0.05519959 56.82744752 -0.04995751 C63.96816458 -0.04591343 71.10886052 -0.04736219 78.24957657 -0.05270576 C79.26651414 -0.05345419 80.28345172 -0.05420261 81.33120558 -0.05497371 C83.39722474 -0.05650521 85.46324389 -0.05804356 87.52926303 -0.05958868 C106.89722856 -0.0733117 126.26515368 -0.06787747 145.63311829 -0.05640347 C163.34343758 -0.04647177 181.0536524 -0.05941103 198.76395558 -0.08333766 C216.95863416 -0.10773306 235.15326408 -0.11733541 253.34795868 -0.11068493 C263.55899794 -0.10719364 273.76995686 -0.10941887 283.98098373 -0.12693596 C292.67357349 -0.14166345 301.36602632 -0.14228622 310.0586134 -0.12486505 C314.49140773 -0.11635712 318.92395752 -0.1142004 323.35673904 -0.1295166 C327.41941059 -0.14337992 331.48162846 -0.13857966 335.54427387 -0.11927737 C337.00919629 -0.11552206 338.47415519 -0.11842577 339.93904506 -0.12888902 C351.86513921 -0.20797537 361.61940387 1.52736138 370.95071411 9.3368988 C378.60862042 16.92256071 383.32035077 25.71829813 383.42225683 36.54590255 C383.41556466 37.4333603 383.4088725 38.32081805 383.40197754 39.23516846 C383.40665751 40.19796099 383.41133748 41.16075352 383.41615927 42.15272158 C383.42808021 45.36375152 383.41866314 48.57435238 383.40921021 51.78538513 C383.41327726 54.09381356 383.4186199 56.40224004 383.42514038 58.71066284 C383.43880598 64.97110725 383.43351774 71.23140317 383.42400312 77.49185014 C383.41639994 84.05036709 383.42345423 90.60887146 383.42816162 97.16738892 C383.43456725 108.88938887 383.42465048 120.61132648 383.40938361 132.33331563 C383.39599056 142.94465088 383.39830153 153.55588761 383.41213989 164.16722107 C383.42822485 176.50692924 383.43415361 188.84657464 383.4253031 201.18629187 C383.42063422 207.7118632 383.41997993 214.2373668 383.42991257 220.76293373 C383.43860375 226.90172485 383.43252083 233.04033075 383.4152298 239.17910194 C383.41127595 241.42722771 383.41238003 243.67536917 383.41901779 245.92348862 C383.461268 261.69174391 383.37660543 276.08470085 372.16946411 288.42674255 C367.65207513 292.65617048 362.84999477 295.36146542 357.02102661 297.38768005 C356.1164056 297.7293027 355.21178459 298.07092535 354.27975082 298.4229002 C348.19034339 300.12942636 341.77975087 299.66633851 335.51034546 299.64837646 C334.01896402 299.65139866 332.52758412 299.65528848 331.03620696 299.65996903 C326.94586265 299.6702493 322.855606 299.66806712 318.7652545 299.66378844 C314.35066502 299.66132123 309.93609664 299.6703354 305.52151489 299.67782593 C296.87531135 299.69057573 288.22913886 299.69236621 279.5829275 299.69002566 C272.55372254 299.68824242 265.52452701 299.68999229 258.49532318 299.69425011 C256.9944886 299.69514289 256.9944886 299.69514289 255.46333413 299.69605371 C253.43065391 299.69726547 251.39797369 299.6984796 249.36529347 299.69969609 C230.30160273 299.71057301 211.23792968 299.70840859 192.17423794 299.70231124 C174.74187001 299.6971437 157.30955798 299.70839296 139.87720111 299.72740946 C121.97187461 299.74679192 104.06657454 299.75504303 86.16123748 299.75128621 C76.11114777 299.74937456 66.06110562 299.75185807 56.01102448 299.76600075 C47.45381938 299.77792081 38.89669112 299.77931251 30.33948496 299.76721058 C25.97559941 299.76132589 21.61185436 299.76021105 17.24797821 299.77221298 C13.24821133 299.78308538 9.24870202 299.77995239 5.24894711 299.7659513 C3.80684379 299.76330806 2.36472018 299.76565913 0.92263678 299.77368716 C-11.63901479 299.83872852 -22.84242541 298.30631668 -32.97897339 290.38768005 C-46.05788294 277.30877051 -47.22817828 260.69224571 -47.25003052 243.21559143 C-47.24614302 241.22233541 -47.24204675 239.22907979 -47.23776245 237.23582458 C-47.24047643 235.10901266 -47.24403963 232.98220168 -47.24838257 230.85539246 C-47.25746156 225.10738882 -47.25398059 219.35945739 -47.2476244 213.61145258 C-47.24253978 207.57753978 -47.2472628 201.54363291 -47.25039673 195.50971985 C-47.25402977 185.37706907 -47.24925524 175.24444749 -47.23971558 165.11180115 C-47.2288382 153.4238714 -47.2323541 141.73601147 -47.24336839 130.04808342 C-47.25246716 119.98740263 -47.25371372 109.92674277 -47.24849105 99.86605918 C-47.24538482 93.86863746 -47.24492469 87.87124847 -47.25156403 81.87382889 C-47.2573744 76.2315802 -47.25327346 70.58942082 -47.24177551 64.9471817 C-47.23914833 62.88575513 -47.23986048 60.82432095 -47.24430084 58.76289749 C-47.31112663 24.56584468 -47.31112663 24.56584468 -36.97897339 12.38768005 C-36.31897339 12.38768005 -35.65897339 12.38768005 -34.97897339 12.38768005 C-34.97897339 11.72768005 -34.97897339 11.06768005 -34.97897339 10.38768005 C-32.88912964 8.7665863 -32.88912964 8.7665863 -30.04147339 6.95018005 C-28.66668823 6.05492615 -28.66668823 6.05492615 -27.26412964 5.1415863 C-18.26837962 0.33886126 -10.09479809 -0.04530074 0 0 Z " fill="#3B8482" transform="translate(331.9789733886719,612.6123199462891)"/>
<path d="M0 0 C1.96378338 -0.00573832 1.96378338 -0.00573832 3.96723914 -0.01159257 C7.58593256 -0.02185007 11.20452664 -0.01969649 14.82322812 -0.01541197 C18.73202147 -0.01294061 22.64079117 -0.02196409 26.54957581 -0.02944946 C34.20202395 -0.04218779 41.854437 -0.04399118 49.50689396 -0.0416492 C55.72943057 -0.03986465 61.95195654 -0.04161862 68.17449188 -0.04587364 C69.06083425 -0.04646883 69.94717661 -0.04706402 70.86037783 -0.04767724 C72.66113379 -0.04888903 74.46188974 -0.05010316 76.26264569 -0.05131962 C93.14458638 -0.06219215 110.02650709 -0.06003422 126.9084489 -0.05393478 C142.33869066 -0.04876778 157.76886924 -0.06001584 173.1990985 -0.07903299 C189.05574969 -0.09842532 204.91237102 -0.10666483 220.76903415 -0.10290974 C229.66610464 -0.10099957 238.56312139 -0.10346717 247.46018219 -0.11762428 C255.03578467 -0.12955694 262.61130033 -0.13092199 270.18690404 -0.11883412 C274.04866083 -0.11295819 277.91025899 -0.1118101 281.77200508 -0.12383652 C285.96702469 -0.13674843 290.16166914 -0.12620013 294.35668945 -0.11352539 C296.16956447 -0.12458682 296.16956447 -0.12458682 298.01906323 -0.13587171 C312.87381014 -0.0417299 326.09449327 3.99899705 337.09246826 14.29975891 C346.83601763 24.68460346 352.09050592 37.56497839 352.07275391 51.76657104 C352.07721059 52.8873395 352.07721059 52.8873395 352.08175731 54.03074974 C352.09041646 56.53001747 352.09195021 59.02923714 352.09344482 61.52851868 C352.09807508 63.32257184 352.10310003 65.11662401 352.10848999 66.91067505 C352.12159867 71.78292977 352.12805633 76.65517071 352.13250065 81.52744031 C352.13543473 84.57473195 352.13954024 87.62201986 352.14400482 90.66930962 C352.15767766 100.21288872 352.16734454 109.75645924 352.17120671 119.30004746 C352.17568268 130.29874007 352.19321008 141.29730812 352.22220731 152.29596287 C352.24386637 160.80828527 352.2539133 169.32057275 352.25524783 177.8329224 C352.25629312 182.91156777 352.26214167 187.990096 352.28006744 193.06871223 C352.29662057 197.85153857 352.29866866 202.63416066 352.28992844 207.41700554 C352.28916184 209.16482467 352.29345052 210.91265511 352.30338669 212.66044617 C352.39685428 230.13784016 349.49409574 247.36375368 336.86590576 260.52632141 C323.53219717 272.48625397 309.4675471 276.57355968 291.93418884 276.52812195 C290.64456326 276.53265306 289.35493768 276.53718417 288.02623254 276.54185259 C284.46681066 276.55402654 280.90748316 276.5538288 277.34804523 276.55146384 C273.50129762 276.55105425 269.6545797 276.56210825 265.80784607 276.57157898 C258.27919838 276.58815865 250.75058202 276.59368713 243.22191759 276.59480374 C237.09999552 276.59575556 230.97808375 276.59987253 224.85616493 276.60620499 C207.48346202 276.62380835 190.11078377 276.63304516 172.73807188 276.63154404 C171.33459794 276.63142417 171.33459794 276.63142417 169.902771 276.63130188 C168.49757545 276.63117924 168.49757545 276.63117924 167.06399212 276.63105412 C151.88275779 276.63024125 136.70162269 276.64938141 121.52041706 276.67757861 C105.91685589 276.7063307 90.31334309 276.72011766 74.70975477 276.71839106 C65.9557595 276.71772801 57.2018683 276.72318312 48.44789696 276.74474716 C40.9949037 276.76298947 33.54206169 276.76728124 26.08905574 276.75372832 C22.29002578 276.74721428 18.49128572 276.74702442 14.69228363 276.76443481 C10.56510022 276.78315396 6.43858322 276.77057059 2.31138611 276.75517273 C1.12293962 276.76545986 -0.06550686 276.77574698 -1.28996688 276.78634584 C-16.41470659 276.66203902 -28.99160091 270.68695314 -39.97003174 260.44429016 C-49.57442273 250.44642319 -55.21844886 237.58047816 -55.21485901 223.72322083 C-55.2185357 222.96056207 -55.22221238 222.19790332 -55.22600049 221.41213369 C-55.23702046 218.85448631 -55.24087835 216.29687959 -55.24468994 213.73921204 C-55.25095603 211.90589774 -55.25760296 210.07258471 -55.26460266 208.23927307 C-55.28563392 202.21517316 -55.29600642 196.19107304 -55.30596924 190.16694641 C-55.3100176 188.09070828 -55.31413455 186.01447028 -55.31831932 183.93823242 C-55.33737151 174.18000995 -55.35160065 164.42179503 -55.35993129 154.66355753 C-55.36969431 143.41408787 -55.39598935 132.16481547 -55.43643218 120.91541529 C-55.46664332 112.21203273 -55.48140504 103.50870654 -55.4847123 94.80527258 C-55.48705771 89.61143585 -55.49595142 84.41780983 -55.52117348 79.22402954 C-55.5445457 74.33201298 -55.54865076 69.44034448 -55.53841209 64.54828644 C-55.53791879 62.760148 -55.54417813 60.97199189 -55.55796814 59.18390656 C-55.68172879 42.17416271 -51.99569439 26.97682278 -40.05206299 14.10835266 C-28.18549859 3.05936652 -15.82985338 -0.04913826 0 0 Z " fill="#3B8482" transform="translate(352.06768798828125,261.7393035888672)"/>
<path d="M0 0 C0.80167268 0.00260849 1.60334536 0.00521699 2.42931116 0.00790453 C5.09525924 0.01867588 7.76088918 0.0435701 10.42674255 0.06817627 C12.34355693 0.07825619 14.26037717 0.08726712 16.17720127 0.09528732 C20.262156 0.1133822 24.34704042 0.1364863 28.43194962 0.16288757 C34.63033323 0.20058046 40.82856652 0.21288008 47.02705383 0.21722412 C48.56861177 0.21834351 48.56861177 0.21834351 50.1413123 0.21948552 C52.24524503 0.22093674 54.34917779 0.22233926 56.45311058 0.22369432 C78.87665946 0.24247691 101.30017567 0.31110175 123.72360897 0.38196182 C136.55922686 0.42206728 149.39477922 0.4543518 162.23045349 0.46905518 C173.55080519 0.48203829 184.87102255 0.50886808 196.19129854 0.55267215 C202.15108 0.57526581 208.1106961 0.59097052 214.07052422 0.58994293 C219.63694376 0.58920107 225.20299067 0.60695924 230.76931381 0.63922691 C232.81076294 0.64776488 234.85225367 0.6494496 236.893713 0.64386177 C239.67334698 0.6372629 242.45177984 0.65503934 245.23129272 0.67907715 C246.04242789 0.67131673 246.85356305 0.66355631 247.68927807 0.65556073 C251.15923277 0.70892913 253.3242061 0.91048289 256.20615482 2.91799545 C259.1322124 7.2759803 258.86439545 11.69190565 258.87748718 16.81298828 C258.88194387 17.7899239 258.88194387 17.7899239 258.88649058 18.78659558 C258.8951374 20.96119815 258.89668241 23.1357454 258.8981781 25.31036377 C258.90280913 26.87283444 258.90783417 28.43530398 258.91322327 29.99777222 C258.92632199 34.23761422 258.93278731 38.4774404 258.93723392 42.71729946 C258.94016878 45.36857502 258.94427438 48.01984629 258.9487381 50.67111969 C258.96240649 58.97329143 258.97207632 67.27545332 258.97593999 75.57763553 C258.98041901 85.14838336 258.9979624 94.71898826 259.02694058 104.28969264 C259.04858466 111.69624521 259.05864573 119.10275763 259.05998111 126.50934148 C259.0610272 130.92893936 259.06689319 135.34840275 259.08480072 139.76796722 C259.10132858 143.92782468 259.10341415 148.08744722 259.09466171 152.2473259 C259.09389385 153.7690354 259.0982008 155.29075778 259.10811996 156.81243515 C259.21570752 174.35420752 259.21570752 174.35420752 255.73704529 179.19805908 C250.4402168 182.89341977 245.26362928 182.62041061 239.05793762 182.57901001 C237.98165907 182.58368998 236.90538051 182.58836995 235.79648745 182.59319174 C232.18979678 182.60515852 228.58348488 182.59567768 224.97679138 182.58624268 C222.39129413 182.59030756 219.80579861 182.59564898 217.2203064 182.60217285 C210.92715526 182.61550596 204.63411152 182.61263462 198.3409562 182.60393493 C193.22718454 182.59715832 188.11344298 182.59624155 182.99966812 182.59950638 C182.27171595 182.59996608 181.54376377 182.60042578 180.79375244 182.60089941 C179.31493356 182.60185858 177.83611469 182.60283122 176.35729583 182.60381718 C162.49432228 182.61236952 148.63140827 182.60253877 134.76844449 182.58641608 C122.87057851 182.57300738 110.97280032 182.57534582 99.07493591 182.58917236 C85.25829073 182.60522121 71.44169767 182.61155151 57.62504447 182.60233557 C56.15229329 182.60137992 54.67954211 182.60043681 53.20679092 182.59950638 C52.4821627 182.59904355 51.75753447 182.59858073 51.01094782 182.59810387 C45.90165304 182.59551231 40.79239131 182.59988843 35.68310165 182.60694504 C28.8097711 182.61622941 21.93660949 182.60963467 15.06329536 182.59226227 C12.5364834 182.58828548 10.00965751 182.58945172 7.48285103 182.59605026 C4.04243834 182.60420837 0.60256377 182.59401327 -2.83781433 182.57901001 C-4.34917731 182.58904826 -4.34917731 182.58904826 -5.89107287 182.5992893 C-6.81146991 182.59146606 -7.73186694 182.58364281 -8.6801548 182.5755825 C-9.87139519 182.57485192 -9.87139519 182.57485192 -11.08670104 182.57410657 C-13.86347744 182.09429128 -15.21921198 181.1146482 -17.26295471 179.19805908 C-19.06775931 174.44857345 -19.51631534 170.17755395 -19.53038025 165.12588501 C-19.53491136 164.44964573 -19.53944247 163.77340644 -19.54411089 163.07667506 C-19.55668618 160.82979313 -19.55513907 158.58315571 -19.55348206 156.33624268 C-19.55947133 154.71772452 -19.56627779 153.09920921 -19.57383728 151.48069763 C-19.59145687 147.0986694 -19.59619075 142.71671934 -19.59746885 138.3346591 C-19.59889249 135.5959578 -19.60316596 132.85727625 -19.60846329 130.11857986 C-19.62694518 120.56205232 -19.63513558 111.00558047 -19.63356018 101.44903564 C-19.63235699 92.54263237 -19.65349883 83.63647073 -19.68504751 74.73012865 C-19.71118666 67.07815644 -19.72192858 59.42626333 -19.72064936 51.77424681 C-19.72013934 47.20610457 -19.72584572 42.63817753 -19.74700546 38.0700798 C-19.76634993 33.77717829 -19.76653856 29.48469826 -19.7519722 25.191782 C-19.74987876 23.61678897 -19.75461681 22.04176979 -19.76669312 20.46682167 C-19.78211623 18.31613947 -19.77285939 16.16691634 -19.75743103 14.01626587 C-19.75852057 12.81319983 -19.7596101 11.61013378 -19.76073265 10.37061119 C-19.14372509 6.43815758 -18.19665184 4.87852452 -15.26295471 2.19805908 C-10.20563707 0.16466073 -5.38248079 -0.07334518 0 0 Z " fill="#F0E9DC" transform="translate(380.26295471191406,671.8019409179688)"/>
<path d="M0 0 C1.11373511 -0.00453111 2.22747022 -0.00906223 3.37495488 -0.01373065 C7.10264794 -0.02637936 10.83019498 -0.02475394 14.5579071 -0.02310181 C17.23234092 -0.02908674 19.90676335 -0.03583574 22.58119202 -0.04345703 C29.08941979 -0.06004459 35.59761133 -0.06556555 42.10585848 -0.06668179 C47.39784997 -0.06763329 52.68982953 -0.07174869 57.98181725 -0.07808304 C72.99695488 -0.09568902 88.01206397 -0.10492287 103.027212 -0.10342209 C103.83607674 -0.10334218 104.64494147 -0.10326227 105.47831726 -0.10317993 C106.69310159 -0.10305729 106.69310159 -0.10305729 107.93242701 -0.10293217 C121.05555764 -0.10211937 134.17857346 -0.12125729 147.30167089 -0.14945666 C160.78751695 -0.17820609 174.27330706 -0.19199584 187.75918454 -0.19026911 C195.32602011 -0.18960594 202.89273531 -0.1950663 210.45954323 -0.21662521 C216.90218408 -0.23486411 223.34464998 -0.2391622 229.78730551 -0.22560637 C233.07169109 -0.21909032 236.35567279 -0.22109681 239.64003944 -0.23631287 C243.2075901 -0.25176835 246.77426483 -0.24245384 250.34179688 -0.22705078 C251.88428532 -0.24248147 251.88428532 -0.24248147 253.45793515 -0.25822389 C264.30736998 -0.1549829 273.06521601 3.72687938 280.8613739 11.26742554 C288.60668188 20.81396793 288.29716403 33.37702116 288.2495575 45.00131226 C288.25362906 46.67788026 288.25897421 48.35444557 288.26548767 50.03100586 C288.27909968 54.56006823 288.27388745 59.0889243 288.26435041 63.61799002 C288.25671948 68.37427899 288.26380916 73.1305511 288.26850891 77.88684082 C288.27395756 85.87424873 288.26679938 93.86157327 288.25248718 101.84896851 C288.23617359 111.05916216 288.2414434 120.26915641 288.2579664 129.4793452 C288.27162008 137.41004694 288.27348167 145.34068896 288.26565039 153.27139866 C288.26099372 157.99783855 288.26029322 162.72418501 288.27025986 167.45061874 C288.27898354 171.8978461 288.2728099 176.34481879 288.25557709 180.79201889 C288.25164042 182.41566548 288.25269737 184.03933383 288.25936508 185.6629715 C288.30662284 198.34906751 288.06323837 210.59193569 278.8613739 220.26742554 C269.62209459 229.30138753 259.38818023 230.41837892 247.03282166 230.40786743 C245.94035873 230.41083855 244.84789581 230.41380968 243.72232795 230.41687083 C240.06066102 230.42554432 236.39902685 230.42706494 232.73735046 230.42855835 C230.11232941 230.43318744 227.48730903 230.43821222 224.86228943 230.44360352 C217.72997104 230.45716364 210.5976583 230.46320779 203.46532917 230.46761417 C199.00912419 230.47038024 194.55292136 230.47461823 190.09671783 230.47911835 C177.75052146 230.49130744 165.4043268 230.50160782 153.05812454 230.50499344 C151.87373434 230.50532279 151.87373434 230.50532279 150.66541706 230.50565879 C149.87397419 230.50587707 149.08253133 230.50609535 148.26710534 230.50632024 C146.66343705 230.5067637 145.05976876 230.50721026 143.45610046 230.50765991 C142.66063182 230.50788134 141.86516317 230.50810277 141.04558942 230.50833091 C128.15844663 230.51227829 115.27136041 230.52973206 102.38423946 230.55301943 C89.14251367 230.57675382 75.90081623 230.58919622 62.65906882 230.59036136 C55.22861126 230.59127689 47.79822743 230.59699847 40.36779022 230.61518097 C34.04043453 230.63061008 27.71317538 230.63568585 21.38580444 230.62744287 C18.16021612 230.6235464 14.9348619 230.62606163 11.70928955 230.63850021 C8.20531369 230.6512182 4.70183338 230.64534317 1.19786072 230.63491821 C0.18830771 230.64297462 -0.8212453 230.65103102 -1.86139083 230.65933156 C-12.71805588 230.58400336 -21.3211517 227.9800679 -29.1386261 220.26742554 C-38.20051629 209.60288664 -38.58371066 197.80623412 -38.54267883 184.44174194 C-38.54839003 182.75532074 -38.55535718 181.0689034 -38.56347656 179.38249207 C-38.58134116 174.82658241 -38.58025215 170.27086606 -38.57453418 165.71493196 C-38.57143233 161.90056849 -38.57754589 158.08624162 -38.58357292 154.27188337 C-38.59759481 145.26743645 -38.5960766 136.26308446 -38.58467102 127.25863647 C-38.57319445 117.99387007 -38.58726306 108.7293933 -38.61406749 99.46466506 C-38.63627658 91.4872512 -38.64285009 83.50992792 -38.63699108 75.53248537 C-38.63363246 70.77806239 -38.63596328 66.02382499 -38.65324211 61.26942825 C-38.66879227 56.7958824 -38.66466693 52.32276312 -38.64593697 47.84923363 C-38.64227318 46.2159082 -38.64529437 44.58255059 -38.65582275 42.94925499 C-38.73028041 30.43433144 -37.52700635 19.10270048 -29.12690735 9.17367554 C-20.83710648 1.22589003 -10.96889073 -0.03282349 0 0 Z M-12.54480076 28.46670818 C-14.5081625 31.91678591 -14.63914174 34.11787042 -14.63983154 38.0789032 C-14.64536594 38.75131694 -14.65090034 39.42373067 -14.65660244 40.11652058 C-14.67018298 42.36292106 -14.65525504 44.60820538 -14.64033508 46.85458374 C-14.64411934 48.46794099 -14.64962027 50.08129499 -14.65670776 51.69464111 C-14.67066916 56.07297989 -14.65948638 60.45092597 -14.64299655 64.82924294 C-14.62913835 69.41526356 -14.63560728 74.00126154 -14.63912964 78.58729553 C-14.64183197 86.29185301 -14.628357 93.99625474 -14.60517883 101.70077515 C-14.57859725 110.59796573 -14.57681292 119.49489542 -14.5885672 128.39211208 C-14.59936369 136.95913157 -14.5931414 145.52605703 -14.57901192 154.09306908 C-14.57326548 157.73443014 -14.5733243 161.37572209 -14.57807732 165.01708412 C-14.58286537 169.3107663 -14.57267002 173.60416458 -14.55112267 177.89779282 C-14.54557841 179.46989548 -14.54506771 181.04202556 -14.55007553 182.61413002 C-14.69309485 193.81213885 -14.69309485 193.81213885 -11.1386261 204.26742554 C-7.9886865 206.36738527 -7.26851308 206.51798513 -3.67887402 206.52190113 C-2.76046803 206.52773332 -1.84206204 206.53356552 -0.89582556 206.53957444 C0.11466259 206.53579512 1.12515075 206.5320158 2.16625977 206.52812195 C3.23856392 206.5319475 4.31086807 206.53577304 5.41566628 206.53971452 C9.02693112 206.55007483 12.63803786 206.54604657 16.24931335 206.54208374 C18.83112231 206.54642858 21.41292998 206.55161096 23.99473572 206.55757141 C30.29095071 206.57033772 36.5871231 206.57210963 42.88334886 206.56977115 C48.00098484 206.56798967 53.11860786 206.56973397 58.23624229 206.57399559 C58.96402349 206.57459078 59.69180469 206.57518597 60.44163987 206.57579919 C61.92005188 206.57701092 63.39846389 206.57822506 64.8768759 206.57944157 C78.75037298 206.59032494 92.62384577 206.58815109 106.49734422 206.58205672 C119.19015545 206.57688911 131.88288991 206.58813746 144.57568596 206.60715494 C157.60486016 206.62652689 170.63399803 206.63479033 183.66318673 206.63103169 C190.97953739 206.62911837 198.29582272 206.63161969 205.61216164 206.64574623 C212.4928361 206.65889687 219.37335436 206.65640866 226.25402832 206.64333534 C228.78161355 206.64096337 231.30920952 206.64372634 233.83678246 206.65195847 C237.2832141 206.66237499 240.72912451 206.65436567 244.17553711 206.64164734 C245.1793331 206.64902162 246.1831291 206.65639591 247.21734315 206.66399366 C252.47113384 206.62311644 256.40255291 206.37963804 260.8613739 203.26742554 C265.63197209 196.61944142 264.27622316 186.45770577 264.23368835 178.65341187 C264.23611986 177.08548237 264.23984265 175.51755443 264.24475098 173.94963074 C264.25411223 169.71427496 264.24477611 165.4791522 264.23141885 161.24381471 C264.22005856 156.80235931 264.22421523 152.36091461 264.22616577 147.91944885 C264.22704703 140.46582251 264.21600136 133.01228741 264.19755554 125.5586853 C264.17636721 116.94770297 264.17288401 108.33685401 264.1791175 99.72585088 C264.18481541 91.42900385 264.17916195 83.13220366 264.16794395 74.83536339 C264.16330601 71.30958882 264.1624206 67.78384297 264.1645298 64.25806618 C264.16641592 60.1072094 264.15828392 55.95648805 264.14246941 51.80566216 C264.13823426 50.28431382 264.13737082 48.76295171 264.14015961 47.24160004 C264.14339326 45.16178879 264.13427045 43.08237922 264.12207031 41.00260925 C264.12001744 39.83993436 264.11796457 38.67725946 264.11584949 37.479352 C263.78792559 33.34037952 262.88877894 29.99398566 260.76046753 26.417346 C257.57572031 24.48894924 254.09173942 24.84716601 250.47587585 24.86869812 C249.60935394 24.86205129 248.74283203 24.85540447 247.85005188 24.84855622 C244.93313502 24.82983999 242.01662539 24.83253769 239.09965515 24.83505249 C237.01136697 24.82603778 234.92308409 24.81571128 232.83480835 24.8041687 C227.14011789 24.77646308 221.44552737 24.76729014 215.7507782 24.76131463 C209.75570265 24.7519156 203.76070075 24.72568698 197.76567078 24.7013092 C186.35640484 24.65750405 174.94715304 24.62906968 163.53782845 24.60598582 C150.73024364 24.57930654 137.92273911 24.53519169 125.11520958 24.4896971 C91.76724732 24.37205139 91.76724732 24.37205139 58.41915894 24.30220509 C56.33218891 24.29929901 54.2452189 24.29638308 52.1582489 24.29345703 C51.14034932 24.29208077 50.12244974 24.29070452 49.07370472 24.28928655 C42.85445311 24.27882423 36.63553569 24.25103663 30.41641235 24.21000201 C26.40680373 24.18462346 22.39718063 24.16680989 18.38752747 24.15012968 C16.5202157 24.14040438 14.65291846 24.12713392 12.78565979 24.11002028 C10.23142539 24.08687984 7.67741281 24.07613253 5.12309265 24.06813049 C4.3839563 24.05816886 3.64481995 24.04820722 2.88328552 24.03794372 C-3.01087487 24.03971704 -8.06812711 24.3749559 -12.54480076 28.46670818 Z " fill="#051920" transform="translate(375.1386260986328,647.7325744628906)"/>
<path d="M0 0 C12.34429886 12.04467995 19.56012745 26.28514793 19.79418945 43.64453125 C19.76376458 63.811879 19.76376458 63.811879 15.4140625 73.35546875 C15.0634375 74.22558594 14.7128125 75.09570312 14.3515625 75.9921875 C7.74240418 90.97753606 -6.7032367 101.43558405 -21.5859375 107.35546875 C-37.83596984 112.43959929 -54.98783047 111.89903255 -70.4453125 104.50390625 C-86.72225132 95.77138798 -98.28800022 83.30158858 -103.67578125 65.640625 C-103.97613281 64.55652344 -104.27648437 63.47242188 -104.5859375 62.35546875 C-104.76406982 61.72793701 -104.94220215 61.10040527 -105.12573242 60.45385742 C-108.55577535 44.81395346 -105.49541737 27.82316003 -97.8359375 13.98046875 C-87.94229907 -1.07506799 -74.48392223 -10.9246834 -57.15625 -15.5625 C-36.48256143 -19.32824523 -15.97159787 -13.44839756 0 0 Z " fill="#05191F" transform="translate(449.5859375,341.64453125)"/>
<path d="M0 0 C1.76730469 0.19722656 1.76730469 0.19722656 3.5703125 0.3984375 C20.01458914 2.66028218 34.49819868 11.0746184 45.25 23.75 C56.88499155 39.1457969 59.61934745 56.14376478 58 75 C55.84795358 89.74814749 48.31407714 104.02805922 36.328125 113 C19.68643348 123.9064193 2.96199902 129.21436019 -16.9921875 126.609375 C-34.14765085 122.54212229 -49.47452841 112.08238583 -59.05859375 97.40625 C-62.06050008 92.13932381 -64.19345911 86.77637654 -66 81 C-66.24492188 80.25621094 -66.48984375 79.51242187 -66.7421875 78.74609375 C-70.81142512 64.05781823 -68.06484137 46.81414174 -60.8125 33.625 C-57.13560766 27.83918646 -52.83091198 22.84731576 -48 18 C-47.31292969 17.28972656 -46.62585938 16.57945312 -45.91796875 15.84765625 C-34.13650095 4.45963264 -16.43470541 -1.83774661 0 0 Z " fill="#05181F" transform="translate(598,325)"/>
<path d="M0 0 C2.28251382 3.1384565 2.61726697 4.85381213 2.5625 8.6875 C2.55347656 9.50476563 2.54445313 10.32203125 2.53515625 11.1640625 C2.52355469 11.79054688 2.51195312 12.41703125 2.5 13.0625 C3.28375 13.26875 4.0675 13.475 4.875 13.6875 C14.9759593 17.51889836 26.0435221 24.58073473 31.0625 34.4375 C32.52362001 38.12206351 33.66031842 41.1165107 33.75 45.0625 C33.77578125 45.743125 33.8015625 46.42375 33.828125 47.125 C33.39254634 49.69698826 32.51647115 50.44127184 30.5 52.0625 C27.38427812 52.6853433 24.2335793 52.52605069 21.0625 52.5 C19.77375977 52.5299707 19.77375977 52.5299707 18.45898438 52.56054688 C12.15857928 52.55565905 12.15857928 52.55565905 9.01171875 50.19921875 C4.5 43.82218992 4.5 43.82218992 4.5 41.0625 C-3.11706977 37.83101585 -10.2073051 36.04936533 -18.5 37.0625 C-22.94488785 39.20557093 -25.54710992 41.50575649 -27.5 46.0625 C-28.05246571 49.77191262 -27.66404153 51.69713477 -26.125 55.125 C-18.5598736 63.59073669 -6.32758419 65.03461926 4.24414062 67.37890625 C11.36899675 69.03944182 17.38428097 71.00219941 23.5 75.0625 C24.07024902 75.43866455 24.64049805 75.8148291 25.22802734 76.20239258 C31.47415177 80.82490962 33.7678562 87.75070716 35.5 95.0625 C35.93094439 109.02509829 33.17060162 120.61825026 23.5 131.0625 C18.95467032 135.6682997 13.99904522 139.70606156 7.28125 140.23828125 C5.35330298 140.24846407 3.42530912 140.16383206 1.5 140.0625 C1.51160156 140.97773437 1.52320313 141.89296875 1.53515625 142.8359375 C1.54417969 144.02445313 1.55320312 145.21296875 1.5625 146.4375 C1.57410156 147.62085938 1.58570313 148.80421875 1.59765625 150.0234375 C1.5 153.0625 1.5 153.0625 0.5 155.0625 C-6.60431476 155.41510386 -12.02463506 155.12358161 -18.5 152.0625 C-21.7102122 148.8522878 -21.48974759 145.68789686 -21.5625 141.25 C-21.541875 140.198125 -21.52125 139.14625 -21.5 138.0625 C-22.22960937 137.94003906 -22.95921875 137.81757812 -23.7109375 137.69140625 C-34.2403625 135.31712414 -45.19511771 127.68515084 -51.5 119.0625 C-54.76716544 113.13319976 -55.87802267 108.86690806 -55.5 102.0625 C-52.30859545 98.87109545 -48.59296124 99.65421274 -44.25 99.625 C-43.40308594 99.59212891 -42.55617188 99.55925781 -41.68359375 99.52539062 C-37.37697576 99.4885533 -34.44598059 99.62838575 -31.04296875 102.42578125 C-29.36647675 104.16407941 -27.7058008 105.91779144 -26.0625 107.6875 C-19.90829294 113.39139923 -14.05024088 113.60036481 -5.89453125 113.41796875 C-1.13304245 112.91935485 1.56855417 111.78427019 5.5 109.0625 C7.32317552 106.16894401 7.50170221 105.11016184 7.375 101.5625 C6.38667343 97.60919373 5.59661332 96.60046929 2.5 94.0625 C-0.46326281 92.78528219 -0.46326281 92.78528219 -3.8125 91.87890625 C-5.05386719 91.50830078 -6.29523438 91.13769531 -7.57421875 90.75585938 C-8.88254386 90.3779749 -10.19113936 90.00102537 -11.5 89.625 C-42.23680166 80.64834997 -42.23680166 80.64834997 -49.97265625 68.80859375 C-55.00180881 59.02067318 -55.07923765 46.25778372 -52.1875 35.6875 C-48.76431351 26.8463205 -40.98620647 19.60229279 -33.5 14.0625 C-29.81733355 12.55937084 -27.51797629 12.0625 -23.5 12.0625 C-23.55800781 11.47082031 -23.61601562 10.87914062 -23.67578125 10.26953125 C-23.92370316 5.92735608 -23.96565066 3.73981005 -21.4375 0.0625 C-15.51070293 -3.97276609 -5.84453558 -4.52951507 0 0 Z " fill="#06191F" transform="translate(509.5,687.9375)"/>
<path d="M0 0 C10.00976758 0.56342404 20.00717773 1.1831954 30 2 C31.62035397 22.09238928 20.74436064 45.03097921 8.328125 60.3125 C7.55984375 61.199375 6.7915625 62.08625 6 63 C5.16984375 63.99 4.3396875 64.98 3.484375 66 C-15.54371954 88.12421519 -43.94012365 102.87358071 -73 106 C-80.35440335 106.39221875 -87.63203587 106.18771883 -95 106 C-95 95.11 -95 84.22 -95 73 C-91.596875 72.896875 -88.19375 72.79375 -84.6875 72.6875 C-76.7511778 72.36308461 -69.48902815 71.82450044 -62 69 C-60.95972656 68.63777344 -59.91945313 68.27554688 -58.84765625 67.90234375 C-46.69969788 63.49392478 -37.26302748 58.04368438 -28 49 C-26.6696875 47.7315625 -26.6696875 47.7315625 -25.3125 46.4375 C-24.1678125 45.2309375 -24.1678125 45.2309375 -23 44 C-22.49339844 43.49984375 -21.98679687 42.9996875 -21.46484375 42.484375 C-10.97056628 31.48809337 -5.51623076 17.2422563 -1 3 C-0.67 2.01 -0.34 1.02 0 0 Z " fill="#3A8482" transform="translate(834,646)"/>
<path d="M0 0 C0.56379392 1.39531121 1.12591217 2.79129942 1.6875 4.1875 C2.05746094 5.10402344 2.42742187 6.02054688 2.80859375 6.96484375 C3.60232634 8.98691005 4.36555707 11.02121815 5.09765625 13.06640625 C14.00489663 37.67454492 30.56473167 55.2407972 54.29296875 66.390625 C67.97866802 72.49858799 81.2131557 72.65001552 96 73 C96 83.89 96 94.78 96 106 C59.42225237 107.19535123 28.18369228 95.84814218 1.375 70.875 C-15.66122193 53.04565787 -29.19829993 27.1136427 -29 2 C-25.66729126 1.66022275 -22.33375214 1.32936937 -19 1 C-17.59814453 0.85691406 -17.59814453 0.85691406 -16.16796875 0.7109375 C-10.74681677 0.18019535 -5.44677829 -0.1027694 0 0 Z " fill="#3A8482" transform="translate(165,646)"/>
<path d="M0 0 C7.92772736 6.75218732 13.51292423 14.16338273 15.125 24.6875 C15.94828924 37.13131444 15.30070494 47.16702615 6.875 57.0625 C-1.51218593 65.62583039 -11.76112388 70.43010003 -23.90869141 70.73925781 C-35.65365829 70.29452585 -45.11674998 66.43749497 -53.12109375 57.8671875 C-59.22403389 50.28268729 -62.27191394 42.25279769 -62.25 32.5 C-62.24838867 31.75258545 -62.24677734 31.0051709 -62.24511719 30.23510742 C-61.99268495 18.74820305 -57.26851024 9.40149483 -49.06640625 1.4296875 C-34.85953539 -9.86490146 -14.71250413 -10.94196287 0 0 Z " fill="#EFEADE" transform="translate(429.875,357.3125)"/>
<path d="M0 0 C9.32552151 6.82621926 15.18685577 16.08453311 17.45703125 27.45703125 C18.38593055 39.63990289 15.77421314 49.60697871 8.45703125 59.45703125 C1.89472624 66.697718 -6.49751589 71.07007152 -16.265625 71.6953125 C-28.87323239 72.01832333 -38.92268601 70.25271833 -48.54296875 61.45703125 C-55.71500093 54.53460576 -59.53235874 45.97339314 -59.88623047 36.02539062 C-60.06754795 24.20906971 -56.80399331 14.20955842 -48.54296875 5.45703125 C-35.5314384 -7.39614376 -15.59665079 -9.46340562 0 0 Z " fill="#F0EADE" transform="translate(614.54296875,355.54296875)"/>
<path d="M0 0 C3.17125529 1.13522341 6.31160323 2.32945486 9.44726562 3.55957031 C28.69375026 11.07956431 50.92755969 13.86276466 70.47851562 5.42675781 C72.55072922 4.50054829 74.59485031 3.54901955 76.61914062 2.5222168 C81.49801843 0.12954235 84.88808328 -0.20704482 90.19726562 0.18457031 C94.03396847 1.63399139 94.99798465 2.82723891 97.00976562 6.43457031 C98.67975999 11.70823672 99.10298714 15.21561049 96.75976562 20.30957031 C87.49671546 30.70226074 69.20496383 34.58599639 55.78076172 35.38891602 C52.04194421 35.48844647 48.31235984 35.51341709 44.57226562 35.49707031 C43.91118805 35.4952475 43.25011047 35.49342468 42.56900024 35.49154663 C32.08301045 35.44293367 22.36396519 34.7884903 12.19726562 32.18457031 C11.46701172 32.0023291 10.73675781 31.82008789 9.984375 31.63232422 C-6.59096997 27.4252233 -6.59096997 27.4252233 -12.80273438 22.18457031 C-13.62773437 21.50394531 -14.45273437 20.82332031 -15.30273438 20.12207031 C-17.75246635 15.32467853 -17.54583168 10.45181888 -16.80273438 5.18457031 C-12.77982835 -1.65436992 -7.22824925 -2.10299238 0 0 Z " fill="#04181F" transform="translate(458.802734375,468.8154296875)"/>
<path d="M0 0 C4.46528874 4.66825641 6.88734798 9.82031374 7.3125 16.3125 C7.00293575 22.40771325 4.30055387 28.01731137 0.2578125 32.546875 C-5.45955088 37.58289455 -10.94732634 38.33703487 -18.3125 38.18359375 C-24.13986861 37.57141008 -27.60262206 34.77877291 -31.5625 30.5625 C-35.80829795 25.25242204 -36.83789896 19.57704818 -36.25 12.875 C-34.86719441 5.41987423 -30.24789212 1.19017884 -24.25 -3.125 C-15.60665882 -7.27380376 -7.61334824 -4.97795847 0 0 Z " fill="#3B8583" transform="translate(515.25,128.125)"/>
<path d="M0 0 C4.24241606 3.15461707 6.98020712 6.71197494 8.4375 11.8125 C9.13844966 17.88739705 7.6603917 22.70134967 4.4375 27.8125 C-0.72671324 32.11601104 -4.82265919 33.147116 -11.4765625 33.0234375 C-16.5209686 32.51332902 -20.19658339 30.54809425 -23.4375 26.75 C-27.37936438 21.30095218 -27.29908531 16.42521533 -26.5625 9.8125 C-22.10525201 -1.85772192 -11.1324205 -3.71080683 0 0 Z " fill="#07191F" transform="translate(602.5625,373.1875)"/>
<path d="M0 0 C5.4663063 2.3427027 8.78744877 6.54362366 11 12 C12.04077715 17.28781941 11.57912534 21.65342381 8.9375 26.375 C6.2447792 30.10106184 3.42191218 32.60546482 -1 34 C-7.54175914 34.89050124 -13.06630692 33.84208635 -18.6875 30.3125 C-22.66941168 26.33058832 -24.15402348 22.04669062 -24.4375 16.5 C-24.25581681 11.65236216 -22.84091585 8.91585698 -20 5 C-13.67253286 -0.72485123 -8.34654612 -0.70233132 0 0 Z " fill="#06181E" transform="translate(413,372)"/>
<path d="M0 0 C0.66 0.33 1.32 0.66 2 1 C1.51244075 1.52010021 1.0248815 2.04020042 0.52254772 2.57606125 C-1.50179187 5.79886676 -1.36936347 7.98758962 -1.36076355 11.78302002 C-1.36332682 12.46430741 -1.3658901 13.1455948 -1.36853105 13.84752727 C-1.37347076 16.12938689 -1.35697366 18.4105842 -1.34057617 20.69238281 C-1.33972994 22.32841984 -1.34020497 23.96445802 -1.34190369 25.60049438 C-1.34276521 30.04236427 -1.3251141 34.48399162 -1.30418181 38.92580509 C-1.28544114 43.56761003 -1.28366663 48.20942039 -1.28010559 52.85125732 C-1.27077745 61.64142088 -1.24615326 70.43147264 -1.21605712 79.22158694 C-1.18253704 89.22872869 -1.16603312 99.23587574 -1.15097082 109.24305964 C-1.11960439 129.82876885 -1.06682893 150.41437738 -1 171 C-1.66 171.33 -2.32 171.66 -3 172 C-4.42679815 169.1464037 -4.13588494 166.72050898 -4.14717102 163.52909851 C-4.15084771 162.85713135 -4.1545244 162.18516419 -4.1583125 161.49283439 C-4.16936733 159.23048547 -4.1731962 156.96818246 -4.17700195 154.70581055 C-4.18326522 153.08803155 -4.1899119 151.47025399 -4.19691467 149.85247803 C-4.21433642 145.44951361 -4.22487951 141.04656006 -4.2331202 136.64356971 C-4.23826759 133.89401354 -4.24434343 131.14446077 -4.25063133 128.394907 C-4.2696862 119.79586746 -4.28391703 111.19683653 -4.2922433 102.59777993 C-4.30201954 92.66469045 -4.32834785 82.73182358 -4.36874419 72.79881257 C-4.39888117 65.12571956 -4.41370985 57.45269046 -4.41702431 49.77953941 C-4.41937746 45.19454157 -4.42837215 40.60978149 -4.45348549 36.02484703 C-4.47672922 31.71151177 -4.48101449 27.39857142 -4.47072411 23.08518982 C-4.47022774 21.50213115 -4.4765779 19.91905329 -4.49028015 18.33605385 C-4.50794593 16.17417839 -4.50092095 14.01372836 -4.48774719 11.85185242 C-4.49013555 10.64229228 -4.4925239 9.43273214 -4.49498463 8.18651867 C-3.90857469 4.4114394 -2.60026163 2.73524895 0 0 Z " fill="#DAD9D2" transform="translate(365,674)"/>
<path d="M0 0 C1.93166016 0.01740234 1.93166016 0.01740234 3.90234375 0.03515625 C5.19269531 0.04417969 6.48304688 0.05320312 7.8125 0.0625 C8.81152344 0.07410156 9.81054688 0.08570313 10.83984375 0.09765625 C10.83984375 1.08765625 10.83984375 2.07765625 10.83984375 3.09765625 C6.87984375 3.09765625 2.91984375 3.09765625 -1.16015625 3.09765625 C-1.15571503 4.34966827 -1.1512738 5.6016803 -1.146698 6.89163208 C-1.1061502 18.69210063 -1.07617098 30.49255505 -1.05653191 42.29307747 C-1.04609586 48.35980254 -1.03193978 54.42647136 -1.00927734 60.49316406 C-0.9875428 66.34811837 -0.97558628 72.20301857 -0.97040176 78.0580101 C-0.96670713 80.2915113 -0.95949247 82.52500954 -0.94869614 84.7584877 C-0.93417328 87.88739669 -0.93217867 91.01608225 -0.93310547 94.14501953 C-0.92231964 95.52929893 -0.92231964 95.52929893 -0.91131592 96.94154358 C-0.92667211 101.73427718 -1.29360198 105.59517117 -3.16015625 110.09765625 C-3.49015625 110.09765625 -3.82015625 110.09765625 -4.16015625 110.09765625 C-4.18348654 95.90309583 -4.20106965 81.70853838 -4.21196842 67.51396275 C-4.21719797 60.9236084 -4.22429692 54.33326688 -4.2355957 47.74291992 C-4.24642203 41.38873607 -4.25243254 35.0345646 -4.25503349 28.68037224 C-4.2568882 26.25016014 -4.26050968 23.81994876 -4.26588631 21.3897419 C-4.27309336 17.99882644 -4.27414733 14.60796284 -4.27368164 11.21704102 C-4.27727692 10.20140579 -4.28087219 9.18577057 -4.28457642 8.13935852 C-4.28320175 7.22084106 -4.28182709 6.30232361 -4.28041077 5.35597229 C-4.28133256 4.5530906 -4.28225435 3.75020891 -4.28320408 2.92299747 C-4.06613048 -0.29716006 -3.2901103 0.10167214 0 0 Z " fill="#D0D0CA" transform="translate(743.16015625,775.90234375)"/>
<path d="M0 0 C1.24132187 0.00222061 2.48264374 0.00444122 3.76158142 0.00672913 C4.44447739 0.0065831 5.12737335 0.00643707 5.83096313 0.00628662 C8.09815092 0.00698575 10.36525752 0.01477811 12.63243103 0.02259827 C14.20041865 0.02446245 15.76840685 0.02588635 17.33639526 0.02688599 C21.47103981 0.03071117 25.60564944 0.04054146 29.74028015 0.05158997 C33.95627876 0.06180407 38.172283 0.0663836 42.38829041 0.07142639 C50.66630125 0.08216373 58.94428368 0.09924015 67.22227478 0.12025452 C67.22227478 0.45025452 67.22227478 0.78025452 67.22227478 1.12025452 C44.45227478 1.12025452 21.68227478 1.12025452 -1.77772522 1.12025452 C-1.77772522 8.38025452 -1.77772522 15.64025452 -1.77772522 23.12025452 C1.04362976 23.1150177 3.86498474 23.10978088 6.77183533 23.10438538 C16.09170245 23.08781849 25.41157023 23.07677084 34.73144817 23.06844234 C40.38228827 23.06322291 46.03311329 23.05614224 51.6839447 23.04481506 C57.13689128 23.03395291 62.58982336 23.0279706 68.04277992 23.02537727 C70.12359152 23.02352904 72.20440232 23.01991995 74.28520775 23.01452446 C77.19873651 23.00726992 80.11220524 23.00626545 83.02574158 23.00672913 C83.88673462 23.00313385 84.74772766 22.99953857 85.6348114 22.99583435 C89.6327052 23.00272296 93.32038723 23.1212716 97.22227478 24.12025452 C97.22227478 24.45025452 97.22227478 24.78025452 97.22227478 25.12025452 C63.89227478 25.12025452 30.56227478 25.12025452 -3.77772522 25.12025452 C-3.77772522 0.16354696 -3.77772522 0.16354696 0 0 Z " fill="#F8F6F1" transform="translate(589.7777252197266,562.8797454833984)"/>
<path d="M0 0 C1.11225449 -0.00197891 1.11225449 -0.00197891 2.24697876 -0.0039978 C4.77797233 -0.00595601 7.30886069 0.00056685 9.83984375 0.0078125 C11.16455185 0.00914185 11.16455185 0.00914185 12.51602173 0.01049805 C45.60412625 0.04824541 78.69341189 0.64897519 111.77734375 1.1328125 C111.77734375 1.4628125 111.77734375 1.7928125 111.77734375 2.1328125 C104.97059814 3.22300775 98.28381167 3.25102543 91.39910316 3.20811462 C89.27999264 3.19496536 87.1609376 3.18811076 85.04179382 3.18273926 C82.00532742 3.17450385 78.96888507 3.16382465 75.93243408 3.15112305 C68.02269168 3.11900414 60.1129271 3.10668367 52.203125 3.1015625 C51.41568153 3.10101364 50.62823807 3.10046478 49.81693268 3.09989929 C28.79663337 3.09194107 7.78853475 3.53075429 -13.22265625 4.1328125 C-12.89265625 3.1428125 -12.56265625 2.1528125 -12.22265625 1.1328125 C-8.09667121 0.14249742 -4.23771937 0.00370083 0 0 Z " fill="#E3E1DA" transform="translate(379.22265625,671.8671875)"/>
<path d="M0 0 C0.33 0 0.66 0 1 0 C1.33 2.31 1.66 4.62 2 7 C2.33 7 2.66 7 3 7 C3 22.84 3 38.68 3 55 C5.97 54.505 5.97 54.505 9 54 C11.67810075 53.88803927 14.31732686 53.95374701 17 54 C13 56 13 56 0 56 C0 37.52 0 19.04 0 0 Z " fill="#E0DFD8" transform="translate(739,640)"/>
<path d="M0 0 C0.33 0 0.66 0 1 0 C1 12.87 1 25.74 1 39 C-8.57 39 -18.14 39 -28 39 C-24.60102327 36.73401552 -23.43680827 36.76257346 -19.45703125 36.8046875 C-17.84731445 36.81435547 -17.84731445 36.81435547 -16.20507812 36.82421875 C-15.08552734 36.84097656 -13.96597656 36.85773438 -12.8125 36.875 C-11.68134766 36.88402344 -10.55019531 36.89304687 -9.38476562 36.90234375 C-6.58963172 36.92593138 -3.79492155 36.958847 -1 37 C-1.00785522 35.42532959 -1.00785522 35.42532959 -1.01586914 33.81884766 C-1.03394239 29.93132375 -1.04544054 26.04380356 -1.05493164 22.15625 C-1.05996653 20.47232438 -1.06679481 18.78840314 -1.07543945 17.10449219 C-1.08754196 14.68683797 -1.09323668 12.26924144 -1.09765625 9.8515625 C-1.10281754 9.0963028 -1.10797882 8.34104309 -1.11329651 7.56289673 C-1.11387171 2.22774341 -1.11387171 2.22774341 0 0 Z " fill="#FAF6EE" transform="translate(272,302)"/>
<path d="M0 0 C0.33 0 0.66 0 1 0 C1.66 9.57 2.32 19.14 3 29 C2.34 29 1.68 29 1 29 C-2.94647436 20.12043268 -1.03423989 9.38203329 0 0 Z " fill="#D6D6CF" transform="translate(111,639)"/>
<path d="M0 0 C1.0625 1.875 1.0625 1.875 2 4 C1.67 4.66 1.34 5.32 1 6 C-2.63 6 -6.26 6 -10 6 C-10 5.01 -10 4.02 -10 3 C-9.36191406 2.95101562 -8.72382813 2.90203125 -8.06640625 2.8515625 C-7.24011719 2.77679687 -6.41382813 2.70203125 -5.5625 2.625 C-4.73878906 2.55539062 -3.91507812 2.48578125 -3.06640625 2.4140625 C-2.38449219 2.27742187 -1.70257813 2.14078125 -1 2 C-0.67 1.34 -0.34 0.68 0 0 Z " fill="#131F23" transform="translate(509,837)"/>
<path d="M0 0 C0.21192221 5.19209404 -0.4087311 9.126739 -2 14 C-2.99 14 -3.98 14 -5 14 C-4.71926927 11.85270859 -4.42511501 9.70716807 -4.125 7.5625 C-3.96257813 6.36753906 -3.80015625 5.17257812 -3.6328125 3.94140625 C-3.42398438 2.97074219 -3.21515625 2.00007812 -3 1 C-1 0 -1 0 0 0 Z " fill="#E2DFD6" transform="translate(547,790)"/>
<path d="M0 0 C0.66 0.66 1.32 1.32 2 2 C-0.40545638 3.20272819 -1.94996953 3.10071472 -4.625 3.0625 C-5.85089844 3.04896484 -5.85089844 3.04896484 -7.1015625 3.03515625 C-8.04128906 3.01775391 -8.04128906 3.01775391 -9 3 C-9.33 2.34 -9.66 1.68 -10 1 C-6.61401171 -0.04184255 -3.53318313 -0.23042499 0 0 Z " fill="#1F2829" transform="translate(504,685)"/>
<path d="M0 0 C2.125 5.625 2.125 5.625 1 9 C0.34 7.02 -0.32 5.04 -1 3 C-4.3 2.67 -7.6 2.34 -11 2 C-11 1.67 -11 1.34 -11 1 C-7.27569643 0.30710631 -3.78916254 -0.11144596 0 0 Z " fill="#040E14" transform="translate(166,644)"/>
<path d="M0 0 C0 3.96 0 7.92 0 12 C-0.99 12 -1.98 12 -3 12 C-3 8.37 -3 4.74 -3 1 C-1 0 -1 0 0 0 Z " fill="#DEDBD3" transform="translate(632,383)"/>
<path d="M0 0 C1.21169409 2.42338819 1 4.28162689 1 7 C-1.31 7.66 -3.62 8.32 -6 9 C-4.68775452 5.06326356 -3.08089673 2.77280706 0 0 Z " fill="#408F8C" transform="translate(311,278)"/>
<path d="M0 0 C0.33 0 0.66 0 1 0 C1.22245975 2.24864725 1.42746557 4.49902623 1.625 6.75 C1.74101563 8.00296875 1.85703125 9.2559375 1.9765625 10.546875 C1.99888599 13.83586903 1.77961002 15.31020776 0 18 C-1.23180249 11.84098757 -0.73030908 6.21324498 0 0 Z " fill="#E1DBD1" transform="translate(888,555)"/>
<path d="M0 0 C4.95 0.33 9.9 0.66 15 1 C15 1.33 15 1.66 15 2 C10.05 2.33 5.1 2.66 0 3 C0 2.01 0 1.02 0 0 Z " fill="#3A4243" transform="translate(583,426)"/>
<path d="M0 0 C1.45922693 0.11409593 2.91740598 0.24165544 4.375 0.375 C5.59316406 0.47941406 5.59316406 0.47941406 6.8359375 0.5859375 C9 1 9 1 11 3 C7.37 3 3.74 3 0 3 C0 2.01 0 1.02 0 0 Z " fill="#DFDCD2" transform="translate(663,236)"/>
<path d="M0 0 C0.66 0.33 1.32 0.66 2 1 C-0.02882906 3.94180214 -2.05819786 5.97117094 -5 8 C-5 6.68 -5 5.36 -5 4 C-2.5 1.75 -2.5 1.75 0 0 Z " fill="#F2EFE8" transform="translate(197,628)"/>
<path d="M0 0 C0.99 0 1.98 0 3 0 C1.25 5.75 1.25 5.75 -1 8 C-1.93065133 5.39417629 -2.14917407 4.35801776 -1.0625 1.75 C-0.711875 1.1725 -0.36125 0.595 0 0 Z " fill="#E6E3DA" transform="translate(877,694)"/>
<path d="M0 0 C0 0.66 0 1.32 0 2 C-4.625 4.125 -4.625 4.125 -8 3 C-8 2.34 -8 1.68 -8 1 C-5.10765685 0.17361624 -3.11257569 0 0 0 Z " fill="#E4E2D9" transform="translate(679,558)"/>
<path d="M0 0 C1.65 0 3.3 0 5 0 C5.33 0.66 5.66 1.32 6 2 C3.04335481 3.4783226 0.25770263 3.06032783 -3 3 C-2.01 2.67 -1.02 2.34 0 2 C0 1.34 0 0.68 0 0 Z " fill="#192124" transform="translate(408,403)"/>
<path d="M0 0 C4.03384128 2.07143201 5.92856799 3.96615872 8 8 C7.01 8.495 7.01 8.495 6 9 C5.62875 8.1028125 5.62875 8.1028125 5.25 7.1875 C3.83555909 4.71222841 2.27139812 3.66569196 0 2 C0 1.34 0 0.68 0 0 Z " fill="#181C1E" transform="translate(601,373)"/>
<path d="M0 0 C0.33 0.66 0.66 1.32 1 2 C0.34 2 -0.32 2 -1 2 C-1 2.66 -1 3.32 -1 4 C-3.31 4 -5.62 4 -8 4 C-5.53721199 1.53721199 -3.29323018 1.00228745 0 0 Z " fill="#3E8C8A" transform="translate(645,874)"/>
</svg>
